<?xml version="1.0" encoding="UTF-8"?>
<svg width="112px" height="112px" viewBox="0 0 112 112" version="1.1" xmlns="http://www.w3.org/2000/svg" xmlns:xlink="http://www.w3.org/1999/xlink">
    <title>query_undo_hover</title>
    <g id="query_undo_hover" stroke="none" stroke-width="1" fill="none" fill-rule="evenodd">
        <g id="Group" transform="translate(0.500000, 0.500000)">
            <circle id="Oval-Copy" class="hoverfill" fill="#EAF2FF" cx="55.5" cy="55.5" r="55.5"></circle>
            <path d="M64.8866667,87.5 L34.1666667,87.5 L34.1666667,81.1 L64.9933333,81.1 C69.9711111,81.1 74.2555556,79.4466667 77.8466667,76.14 C81.4377778,72.8333333 83.2333333,68.7266667 83.2333333,63.82 C83.2333333,58.9133333 81.4377778,54.8066667 77.8466667,51.5 C74.2555556,48.1933333 69.9711111,46.54 64.9933333,46.54 L33.5266667,46.54 L45.6866667,58.7 L41.2066667,63.18 L21.3666667,43.34 L41.2066667,23.5 L45.6866667,27.98 L33.5266667,40.14 L64.8866667,40.14 C71.6422222,40.14 77.4555556,42.4155556 82.3266667,46.9666667 C87.1977778,51.5177778 89.6333333,57.1355556 89.6333333,63.82 C89.6333333,70.5044444 87.1977778,76.1222222 82.3266667,80.6733333 C77.4555556,85.2244444 71.6422222,87.5 64.8866667,87.5 Z" id="Path" class="primaryfill" fill="#4285F4" fill-rule="nonzero"></path>
        </g>
    </g>
</svg>