<?xml version="1.0" encoding="UTF-8"?>
<svg width="357px" height="110px" viewBox="0 0 357 110" version="1.1" xmlns="http://www.w3.org/2000/svg" xmlns:xlink="http://www.w3.org/1999/xlink">
    <title>source_view</title>
    <g id="source_view" stroke="none" stroke-width="1" fill="none" fill-rule="evenodd">
        <path d="M55.5,5.0735362 L287.5,5.0735362 C297.517605,5.0735362 306.301251,7.17877912 313.56051,11.0988368 C320.819769,15.0188946 326.554642,20.7537671 330.474699,28.0130264 C334.394757,35.2722856 336.5,44.0559316 336.5,54.0735362 C336.5,64.0911408 334.394757,72.8747868 330.474699,80.134046 C326.554642,87.3933053 320.819769,93.1281778 313.56051,97.0482355 C306.301251,100.968293 297.517605,103.073536 287.5,103.073536 L55.5,103.073536 C45.4823954,103.073536 36.6987494,100.968293 29.4394902,97.0482355 C22.1802309,93.1281778 16.4453584,87.3933053 12.5253006,80.134046 C8.60524292,72.8747868 6.5,64.0911408 6.5,54.0735362 C6.5,44.0559316 8.60524292,35.2722856 12.5253006,28.0130264 C16.4453584,20.7537671 22.1802309,15.0188946 29.4394902,11.0988368 C36.6987494,7.17877912 45.4823954,5.0735362 55.5,5.0735362 Z" id="Rectangle" fill="#4285F4"></path>
        <text id="VIEW" font-family="GoogleSans-Medium, Google Sans" font-size="59" font-weight="400" fill="#FFFFFF">
            <tspan x="75.312" y="74.5">QUERY</tspan>
        </text>
    </g>
</svg>