<svg fill="none" height="15" viewBox="0 0 15 15" width="15" xmlns="http://www.w3.org/2000/svg"><g clip-rule="evenodd" fill="#151515" fill-rule="evenodd"><path d="m3 3.5c0-.82843.67157-1.5 1.5-1.5h1c.27614 0 .5.22386.5.5s-.22386.5-.5.5h-1c-.27614 0-.5.22386-.5.5v2.88197c0 .43292-.18638.83753-.49993 1.11803.31355.2805.49993.68511.49993 1.11803v2.88197c0 .2761.22386.5.5.5h1c.27614 0 .5.2239.5.5s-.22386.5-.5.5h-1c-.82843 0-1.5-.6716-1.5-1.5v-2.88197c0-.18938-.107-.36251-.27639-.44721l-.44722-.22361c-.16939-.08469-.27639-.25782-.27639-.44721s.107-.36252.27639-.44721l.44722-.22361c.16939-.0847.27639-.25783.27639-.44721z"/><path d="m12 3.5c0-.82843-.6716-1.5-1.5-1.5h-1c-.27614 0-.5.22386-.5.5s.22386.5.5.5h1c.2761 0 .5.22386.5.5v2.88197c0 .43292.1864.83753.4999 1.11803-.3135.2805-.4999.68511-.4999 1.11803v2.88197c0 .2761-.2239.5-.5.5h-1c-.27614 0-.5.2239-.5.5s.22386.5.5.5h1c.8284 0 1.5-.6716 1.5-1.5v-2.88197c0-.18938.107-.36251.2764-.44721l.4472-.22361c.1694-.08469.2764-.25782.2764-.44721s-.107-.36252-.2764-.44721l-.4472-.22361c-.1694-.0847-.2764-.25783-.2764-.44721z"/></g></svg>