<svg fill="none" height="15" viewBox="0 0 15 15" width="15" xmlns="http://www.w3.org/2000/svg"><path clip-rule="evenodd" d="m2 5.5c0-.27614.22386-.5.5-.5h2c.27614 0 .5.22386.5.5s-.22386.5-.5.5h-1.5v1h1.5c.27614 0 .5.22386.5.5v2c0 .27614-.22386.5-.5.5h-2c-.27614 0-.5-.22386-.5-.5s.22386-.5.5-.5h1.5v-1h-1.5c-.27614 0-.5-.22386-.5-.5zm4 0c0-.27614.22386-.5.5-.5h2c.27614 0 .5.22386.5.5v4.5h.5c.27614 0 .5.2239.5.5s-.22386.5-.5.5h-1c-.27614 0-.5-.2239-.5-.5v-.5h-1.5c-.27614 0-.5-.22386-.5-.5zm2 3.5h-1v-3h1zm2.5-4c.2761 0 .5.22386.5.5v3.5h1.5c.2761 0 .5.22386.5.5s-.2239.5-.5.5h-2c-.2761 0-.5-.22386-.5-.5v-4c0-.27614.2239-.5.5-.5z" fill="#151515" fill-rule="evenodd"/></svg>