<?xml version="1.0" encoding="UTF-8"?>
<svg width="242px" height="169px" viewBox="0 0 242 169" version="1.1" xmlns="http://www.w3.org/2000/svg" xmlns:xlink="http://www.w3.org/1999/xlink">
    <title>web_logo_retro</title>
    <g id="web_logo_retro" stroke="none" stroke-width="1" fill="none" fill-rule="evenodd">
        <g id="Group-5" transform="translate(8.065139, 9.000000)" fill-rule="nonzero" stroke-width="10">
            <path d="M66.8164971,8.04981927 C70.8741349,0.502462438 80.0934949,-2.2220379 87.4085141,1.96447745 C94.5645112,6.05998159 97.2471437,15.2521193 93.5616777,22.7156028 L93.3065249,23.2105325 L28.3940308,143.950181 C24.3363931,151.497538 15.117033,154.222038 7.80201383,150.035523 C0.646016803,145.940018 -2.0366157,136.747881 1.64885028,129.284397 L1.90400302,128.789468 L66.8164971,8.04981927 Z" id="Line-Copy-8" stroke="#1573A1" fill="#1573A1"></path>
            <path d="M192.878294,8.04981927 C196.98997,0.0579198953 207.437352,-1.75261923 213.470311,1.96447745 C219.503269,5.68157413 221.641451,12.7091374 223.25,15.6301759 L219.368321,23.2105325 L154.455827,143.950181 C150.39819,151.497538 141.17883,154.222038 133.86381,150.035523 C126.707813,145.940018 124.025181,136.747881 127.710647,129.284397 L127.9658,128.789468 L192.878294,8.04981927 Z" id="Line-Copy-16" stroke="#FBBC04" fill="#FBBC04" transform="translate(174.655898, 76.056961) scale(-1, 1) translate(-174.655898, -76.056961) "></path>
            <path d="M129.943475,8.04981927 C134.001113,0.502462438 143.220473,-2.2220379 150.535492,1.96447745 C157.691489,6.05998159 160.374122,15.2521193 156.688656,22.7156028 L156.433503,23.2105325 L91.5210087,143.950181 C87.463371,151.497538 78.2440109,154.222038 70.9289918,150.035523 C63.7729947,145.940018 61.0903622,136.747881 64.7758282,129.284397 L65.0309809,128.789468 L129.943475,8.04981927 Z" id="Line-Copy-10" stroke="#E37400" fill="#E37400"></path>
            <path d="M132.146094,8.04981927 C136.203731,0.502462438 145.423091,-2.2220379 152.738111,1.96447745 C159.894108,6.05998159 162.57674,15.2521193 158.891274,22.7156028 L158.636121,23.2105325 L93.7236274,143.950181 C89.6659896,151.497538 80.4466296,154.222038 73.1316104,150.035523 C65.9756133,145.940018 63.2929808,136.747881 66.9784468,129.284397 L67.2335996,128.789468 L132.146094,8.04981927 Z" id="Line-Copy-12" stroke="#11B5CB" fill="#11B5CB" transform="translate(112.934861, 76.000000) scale(-1, 1) translate(-112.934861, -76.000000) "></path>
        </g>
    </g>
</svg>